# xmcd
#
# Track frame offsets: 
#        150
#        18564
#        35542
#        52147
#        55897
#        71744
#        89254
#        111537
#        131814
#        146629
#        155222
#        176792
#
# Disc length: 2554 seconds
#
# Revision: 1
# Processed by: cddbd v1.5.2PL0 Copyright (c) Steve Scherf et al.
# Submitted via: ExactAudioCopy v0.99pb3
#
DISCID=be09f80c
DTITLE=Annamateur - Annamateur and Ihre Gitarristen
DYEAR=2005
DGENRE=Jazz
TTITLE0=Black Coffee
TTITLE1=Bulimieswing
TTITLE2=Flambeé Montalbanaise
TTITLE3=Nutella
TTITLE4=Lied vom jungen Akkordeonspieler
TTITLE5=Um nicht allein zu sein
TTITLE6=Tango 'till they 're sore
TTITLE7=La Boheme
TTITLE8=Unerotisch
TTITLE9=Chat' aime
TTITLE10=She's leaving home
TTITLE11=Tom's diner
EXTD=YEAR: 2005
EXTT0=
EXTT1=
EXTT2=
EXTT3=
EXTT4=
EXTT5=
EXTT6=
EXTT7=
EXTT8=
EXTT9=
EXTT10=
EXTT11=
PLAYORDER=
